<svg id="apple-music_1_" data-name="apple-music (1)" xmlns="http://www.w3.org/2000/svg" width="123.437" height="29.354" viewBox="0 0 123.437 29.354">
  <path id="Caminho_37" data-name="Caminho 37" d="M19.973,16.059a6.135,6.135,0,0,1,3.092-5.578,6.77,6.77,0,0,0-5.24-2.906,7.49,7.49,0,0,0-3.15.587,15.444,15.444,0,0,1-2.32.763,6.965,6.965,0,0,1-2.092-.646A7.075,7.075,0,0,0,7.63,7.633,6.526,6.526,0,0,0,4.222,8.646,7.252,7.252,0,0,0,1.7,11.332a10.043,10.043,0,0,0-1.2,5.05,16.515,16.515,0,0,0,.887,5.284A17.833,17.833,0,0,0,3.506,26.1a14.271,14.271,0,0,0,2,2.526A3.36,3.36,0,0,0,8.031,29.8a6.378,6.378,0,0,0,2.176-.618,6.207,6.207,0,0,1,2.52-.556,6.015,6.015,0,0,1,2.434.556,6.262,6.262,0,0,0,2.291.588,3.791,3.791,0,0,0,2.463-1.144,6.956,6.956,0,0,0,.872-.969q.545-.718,1.046-1.468.417-.646.788-1.321a13.284,13.284,0,0,0,.7-1.5q.142-.323.257-.66c.076-.225.152-.454.229-.689a6.514,6.514,0,0,1-3.836-5.959Zm20.765,5.233H40.6L34.784,8H30.217V29.445H34.2V15.558h.185l4.86,11.027h2.791l4.845-11.027h.186V29.445h4.026V8H46.553ZM16.364,5.2a6.476,6.476,0,0,0,1.519-4.11V.794A1.55,1.55,0,0,0,17.854.5a5.6,5.6,0,0,0-2.249.675,6.237,6.237,0,0,0-1.962,1.556A6.078,6.078,0,0,0,12.1,6.694v.278a1.491,1.491,0,0,0,.029.28A4.739,4.739,0,0,0,16.364,5.2ZM97.607,8h4.473V29.445H97.607Zm17.985,3.408a3.982,3.982,0,0,1,4.056,4.242h4.29V15.2c0-4.147-3.163-7.6-8.377-7.6-5.585,0-8.916,3.676-8.916,9.944v2.419c0,6.266,3.3,9.9,8.9,9.9,5.353,0,8.393-3.5,8.393-7.4v-.471h-4.289a3.8,3.8,0,0,1-4.025,4.053c-2.716,0-4.444-1.932-4.444-6.065V17.555c0-4.118,1.744-6.144,4.413-6.144ZM68.2,21.543C68.2,24.419,66.517,26,64.049,26c-2.484,0-4.165-1.571-4.165-4.461V8H55.441V22.171c0,4.572,3.239,7.682,8.607,7.682,5.353,0,8.608-3.11,8.608-7.682V8H68.2v13.54Zm19.258-4.586-3.193-.722c-1.882-.394-2.869-1.226-2.869-2.468,0-1.649,1.342-2.686,3.5-2.686,2.437,0,3.656,1.4,3.763,2.906h4.165c-.046-3.786-3.208-6.425-7.914-6.425-4.458,0-7.975,2.341-7.975,6.551,0,3.644,2.469,5.34,5.43,5.986l3.162.738c2.129.487,3.209,1.194,3.209,2.654,0,1.666-1.327,2.8-3.81,2.8-2.669,0-4.073-1.414-4.2-3H76.443c.063,3.032,2.068,6.567,8.27,6.567,5.214,0,8.439-2.592,8.439-6.8,0-3.9-2.609-5.42-5.694-6.094Z" transform="translate(-0.5 -0.5)" fill="#fff"/>
</svg>
