<svg xmlns="http://www.w3.org/2000/svg" width="162.566" height="48.758" viewBox="0 0 162.566 48.758">
  <path id="spotify-seeklogo.com" d="M98.809,1369.15a24.379,24.379,0,1,0,24.379,24.378,24.379,24.379,0,0,0-24.379-24.378h0Zm11.18,35.161a1.519,1.519,0,0,1-2.089.506c-5.725-3.5-12.93-4.289-21.416-2.351a1.519,1.519,0,1,1-.676-2.962c9.287-2.123,17.252-1.209,23.678,2.717a1.52,1.52,0,0,1,.5,2.09h0Zm2.984-6.637a1.9,1.9,0,0,1-2.615.626c-6.552-4.027-16.542-5.194-24.293-2.841a1.9,1.9,0,1,1-1.1-3.637c8.854-2.686,19.86-1.385,27.385,3.239a1.9,1.9,0,0,1,.626,2.613h0Zm.256-6.912c-7.858-4.667-20.821-5.1-28.322-2.819a2.28,2.28,0,1,1-1.324-4.364c8.611-2.614,22.927-2.109,31.973,3.261a2.28,2.28,0,0,1-2.327,3.922h0Zm27.528.894c-4.209-1-4.959-1.708-4.959-3.189,0-1.4,1.317-2.34,3.275-2.34a9.568,9.568,0,0,1,5.753,2.186.277.277,0,0,0,.39-.062l2.055-2.9a.276.276,0,0,0-.052-.375,12.436,12.436,0,0,0-8.084-2.8c-4.545,0-7.719,2.727-7.719,6.63,0,4.185,2.739,5.667,7.471,6.81,4.028.928,4.708,1.7,4.708,3.095,0,1.54-1.375,2.5-3.587,2.5a9.667,9.667,0,0,1-6.7-2.769.29.29,0,0,0-.2-.066.273.273,0,0,0-.189.1l-2.3,2.743a.273.273,0,0,0,.027.382,13.739,13.739,0,0,0,9.278,3.559c4.9,0,8.062-2.676,8.062-6.818.009-3.5-2.084-5.432-7.211-6.679Zm18.3-4.151a6.6,6.6,0,0,0-5.3,2.549v-1.928a.276.276,0,0,0-.275-.276h-3.769a.276.276,0,0,0-.275.276v21.427a.276.276,0,0,0,.275.276h3.769a.276.276,0,0,0,.275-.276v-6.763a6.77,6.77,0,0,0,5.3,2.4c3.944,0,7.937-3.036,7.937-8.84s-3.988-8.843-7.933-8.843Zm3.554,8.843c0,2.956-1.821,5.018-4.428,5.018-2.577,0-4.521-2.156-4.521-5.018s1.944-5.018,4.521-5.018,4.428,2.11,4.428,5.018Zm14.617-8.843a8.86,8.86,0,1,0,9.027,8.843,8.888,8.888,0,0,0-9.027-8.843Zm0,13.89a4.793,4.793,0,0,1-4.739-5.049,4.68,4.68,0,0,1,4.676-4.988,4.808,4.808,0,0,1,4.77,5.051,4.693,4.693,0,0,1-4.707,4.986Zm19.874-13.546h-4.148v-4.24a.276.276,0,0,0-.275-.276h-3.768a.276.276,0,0,0-.276.276v4.24h-1.812a.276.276,0,0,0-.275.276v3.239a.276.276,0,0,0,.275.276h1.812v8.381c0,3.387,1.686,5.1,5.011,5.1a6.875,6.875,0,0,0,3.531-.879.275.275,0,0,0,.139-.239v-3.084a.277.277,0,0,0-.4-.248,4.748,4.748,0,0,1-2.212.534c-1.209,0-1.749-.549-1.749-1.78v-7.789H197.1a.275.275,0,0,0,.275-.276v-3.239a.267.267,0,0,0-.271-.276Zm14.451.017v-.521c0-1.532.587-2.215,1.905-2.215a6.355,6.355,0,0,1,2.124.392.276.276,0,0,0,.362-.263v-3.176a.275.275,0,0,0-.2-.265,10.343,10.343,0,0,0-3.133-.45c-3.481,0-5.321,1.96-5.321,5.667v.8h-1.811a.277.277,0,0,0-.277.276v3.256a.277.277,0,0,0,.277.276H207.3v12.928a.276.276,0,0,0,.275.276h3.769a.277.277,0,0,0,.276-.276v-12.927h3.519l5.391,12.925c-.612,1.358-1.214,1.628-2.035,1.628a4.346,4.346,0,0,1-2.078-.59.283.283,0,0,0-.219-.021.278.278,0,0,0-.163.149l-1.277,2.8a.274.274,0,0,0,.119.357,7.937,7.937,0,0,0,4.025,1.031c2.783,0,4.321-1.3,5.677-4.784l6.539-16.9a.276.276,0,0,0-.256-.376h-3.924a.277.277,0,0,0-.261.185l-4.019,11.481-4.4-11.489a.275.275,0,0,0-.257-.178h-6.439Zm-8.378-.017h-3.769a.277.277,0,0,0-.276.276v16.443a.277.277,0,0,0,.276.276h3.769a.277.277,0,0,0,.276-.276v-16.442a.276.276,0,0,0-.277-.276Zm-1.863-7.487a2.7,2.7,0,1,0,2.7,2.7,2.7,2.7,0,0,0-2.7-2.7Zm33.018,12.774a2.66,2.66,0,1,1,2.666-2.668,2.642,2.642,0,0,1-2.666,2.668Zm.015-5.055a2.4,2.4,0,1,0,2.374,2.387,2.372,2.372,0,0,0-2.374-2.387h0Zm.588,2.66.75,1.05h-.633l-.675-.964h-.581v.964h-.53v-2.784h1.242c.647,0,1.072.331,1.072.888a.826.826,0,0,1-.643.846Zm-.448-1.256h-.691v.881h.691c.345,0,.55-.169.55-.441s-.207-.44-.55-.44Z" transform="translate(-74.43 -1369.15)" fill="#fff"/>
</svg>
