<svg xmlns="http://www.w3.org/2000/svg" width="172.915" height="22.994" viewBox="0 0 172.915 22.994">
  <g id="Grupo_6" data-name="Grupo 6" transform="translate(-774.413 -309.188)">
    <path id="tidal-1" d="M0,59.5H17.079c.009,1.367.009,2.734,0,4.092H10.927V79.752a4.816,4.816,0,0,1-.036.8H6.143c.018-5.654.009-11.3.009-16.955H0Zm31.326,0c1.6,0,3.2,0,4.793.009-.009,7.013.018,14.025-.018,21.038H31.335c-.027-1.864-.009-3.728-.018-5.592C31.326,69.811,31.317,64.662,31.326,59.5Zm84.515,0c1.6,0,3.2,0,4.793.009V76.326c2.778.018,5.566.009,8.344.009v4.216H115.85C115.824,73.539,115.85,66.526,115.841,59.5ZM70.783,66.562a8.99,8.99,0,0,0-2.707-4.279,11.565,11.565,0,0,0-6.2-2.636,27.648,27.648,0,0,0-3.835-.142H52.373a2.049,2.049,0,0,0-.328.027c.027,6.95,0,13.9.018,20.851-.009.044-.018.124-.027.169h8.2c.737-.133,1.491-.124,2.219-.284a10.98,10.98,0,0,0,6.5-3.648,9.809,9.809,0,0,0,2.175-5.042,12.406,12.406,0,0,0-.346-5.015Zm-5.406,6.986a5.735,5.735,0,0,1-2.494,2.166,7.537,7.537,0,0,1-2.956.648c-1.065.009-2.13,0-3.2.009-.053-1.181-.009-2.361-.027-3.542,0-3.08,0-6.152.009-9.232h3.293a6.674,6.674,0,0,1,4.527,1.775,6.118,6.118,0,0,1,1.775,3.986A7.106,7.106,0,0,1,65.377,73.548ZM101.071,75.6c-2.006-4.873-4-9.756-6.027-14.62-.187-.488-.382-.985-.6-1.456q-2.477-.04-4.953,0-4.234,10.186-8.468,20.363a3.736,3.736,0,0,0-.24.666h5.1c.506-1.4,1.047-2.787,1.553-4.19,2.894-.044,5.8-.009,8.7-.018.151-.044.2.116.231.222.488,1.332.985,2.654,1.465,3.986h5.264C102.455,78.883,101.745,77.249,101.071,75.6ZM88.785,72.624a1.178,1.178,0,0,1,.142-.515c.968-2.53,1.962-5.06,2.92-7.59a.205.205,0,0,1,.071-.018c1,2.663,2.024,5.317,3.036,7.98,0,.036.009.107.009.142Q91.874,72.6,88.785,72.624Z" transform="translate(818.302 251.486)" fill="#fff" stroke="#000" stroke-width="0.094"/>
    <path id="tidal-1-2" data-name="tidal-1" d="M73.152,0h.071c.542.621,1.154,1.172,1.731,1.766L78.878,5.69v.071c-1.9,1.891-3.79,3.8-5.69,5.69Q70.325,8.6,67.471,5.743a2.336,2.336,0,0,1,.426-.462C69.646,3.515,71.421,1.775,73.152,0ZM84.6,0h.071a1.4,1.4,0,0,0,.178.222c1.837,1.82,3.649,3.666,5.5,5.477a.878.878,0,0,1-.222.257q-2.756,2.743-5.5,5.495c-1.917-1.891-3.8-3.817-5.725-5.7C80.768,3.808,82.73,1.935,84.6,0ZM96.054,0h.071c.355.426.772.79,1.154,1.189l4.305,4.305c.071.08.187.151.213.266-1.926,1.873-3.79,3.817-5.725,5.69L90.613,5.992c-.089-.1-.2-.169-.249-.293.968-.941,1.909-1.908,2.867-2.858C94.172,1.891,95.131.968,96.054,0ZM78.984,17.088q2.809-2.809,5.628-5.628l.08.036q2.823,2.836,5.663,5.654c-.062.142-.2.222-.293.337-1.367,1.358-2.734,2.734-4.1,4.092-.444.426-.87.905-1.322,1.3-.648-.586-1.243-1.243-1.873-1.846-1.278-1.278-2.547-2.557-3.835-3.826.018-.036.036-.089.053-.124Z" transform="translate(707 309.235)" fill="#fff" stroke="#000" stroke-width="0.094"/>
  </g>
</svg>
