<svg id="new-youtube-logo" xmlns="http://www.w3.org/2000/svg" width="112.794" height="24.88" viewBox="0 0 112.794 24.88">
  <path id="Caminho_50" data-name="Caminho 50" d="M18.76,24.868l-7.379-.135a38.5,38.5,0,0,1-7.127-.44C.691,23.565.439,20,.175,17A51.145,51.145,0,0,1,.638,4.334,4.332,4.332,0,0,1,4.912.442,235.923,235.923,0,0,1,28.845.213a17.261,17.261,0,0,1,2.512.3c4.086.716,4.186,4.761,4.45,8.166a46.289,46.289,0,0,1-.352,10.314c-.405,2.829-1.18,5.2-4.45,5.43-4.1.3-8.1.54-12.21.464C18.8,24.868,18.772,24.868,18.76,24.868Zm-4.338-7.162c3.088-1.773,6.117-3.516,9.187-5.277-3.094-1.773-6.117-3.516-9.187-5.277Z" transform="translate(0.02 -0.021)" fill="#fff"/>
  <g id="Grupo_5" data-name="Grupo 5" transform="translate(39.573 0.862)">
    <path id="Caminho_51" data-name="Caminho 51" d="M729.733,35.469c-.141.575-.264,1.027-.387,1.509h-2.888V14.7h3.37v8.218c.176-.223.264-.317.34-.417a3.658,3.658,0,0,1,2.283-1.509,2.7,2.7,0,0,1,3.305,1.849,10.1,10.1,0,0,1,.517,2.853c.047,2.46.012,4.913-.076,7.373a6.884,6.884,0,0,1-.552,2.225,3.212,3.212,0,0,1-5.565.663C729.985,35.833,729.9,35.7,729.733,35.469Zm.164-6.129v4.074a1.294,1.294,0,0,0,2.46.517,2.126,2.126,0,0,0,.229-.781c.065-2.489.123-4.978.141-7.473a4.8,4.8,0,0,0-.252-1.4,1.05,1.05,0,0,0-1.708-.581,1.82,1.82,0,0,0-.869,1.567ZM720.74,21.31h3.528V36.99h-2.753c-.1-.593-.2-1.2-.317-1.92-.188.276-.3.452-.417.628a3.566,3.566,0,0,1-3.745,1.532c-1.309-.211-2.1-1.221-2.272-2.876a13.975,13.975,0,0,1-.076-1.485c-.012-3.669,0-7.35,0-11.019V21.3h3.569v.64c0,3.546-.012,7.085.012,10.631a9.008,9.008,0,0,0,.141,1.532.815.815,0,0,0,.98.669,1.441,1.441,0,0,0,1.38-1.479V22a5.3,5.3,0,0,1-.029-.693ZM696.448,21.3h3.546v.663c0,3.528-.012,7.05.012,10.567a7.346,7.346,0,0,0,.153,1.52.819.819,0,0,0,1.057.693,1.417,1.417,0,0,0,1.3-1.485V21.322h3.528V36.99H703.3c-.1-.581-.2-1.18-.329-1.937-.176.264-.276.417-.376.575a3.58,3.58,0,0,1-3.769,1.6,2.743,2.743,0,0,1-2.26-2.636,10.526,10.526,0,0,1-.112-1.421c-.012-3.81-.012-7.637-.012-11.447Zm-1.82,8.371c-.012.528-.047,1.057-.076,1.585-.135,1.585-.2,3.833-1.479,4.99a4.464,4.464,0,0,1-2.918,1.027,8.994,8.994,0,0,1-1.432-.053c-2.248-.34-3.293-1.333-3.669-3.8a26.462,26.462,0,0,1,.047-8.606c.528-2.953,2.348-4,5.178-3.8,2.642.188,3.822,1.92,4.133,4.385a29.729,29.729,0,0,1,.217,4.279Zm-3.593-.54c0-1,.024-2.014-.012-3.017a10.338,10.338,0,0,0-.223-1.743,1.07,1.07,0,0,0-1.092-.969,1.132,1.132,0,0,0-1.068.945,2.631,2.631,0,0,0-.135.693c0,1.573-.012,3.152-.023,4.726a13.676,13.676,0,0,0,.264,4.409.962.962,0,0,0,.98.663.948.948,0,0,0,.939-.64,2.639,2.639,0,0,0,.252-1C690.959,31.841,691.036,30.485,691.036,29.129Zm-11.159-2.953c.311-1.52.6-3.006.927-4.5.405-1.9.857-3.792,1.256-5.694.1-.464.288-.575.728-.564.945.035,1.908.012,2.917.012-.329,1.209-.652,2.36-.969,3.493q-1.506,5.336-3,10.7a3.3,3.3,0,0,0-.112.869c-.012,1.949,0,3.892,0,5.841v.634H678.18c-.012-.176-.035-.352-.035-.528,0-1.1-.088-2.213.012-3.3.252-2.624-.581-5.037-1.256-7.479-.892-3.229-1.8-6.469-2.689-9.7-.047-.153-.065-.317-.112-.5h3.516c.74,3.563,1.485,7.127,2.26,10.725Zm67.42,4.092h-5.941c.065,1.192.088,2.325.211,3.446a1.1,1.1,0,0,0,1.192,1.121,1.19,1.19,0,0,0,1.28-1.115,6.651,6.651,0,0,0,.112-.763c.023-.229.035-.475.053-.8,1,.053,1.984.112,2.953.153A3.79,3.79,0,0,1,745,36.79a6.174,6.174,0,0,1-4.1.123,3.015,3.015,0,0,1-2.113-1.937,11.382,11.382,0,0,1-.681-2.865,32.1,32.1,0,0,1,.123-7.2,8.119,8.119,0,0,1,.3-1.168A3.582,3.582,0,0,1,741.755,21a10.367,10.367,0,0,1,2.73.1,3.169,3.169,0,0,1,2.548,2.653,10.006,10.006,0,0,1,.288,1.949c.006,1.5-.023,2.982-.023,4.561Zm-3.375-2.06c0-1.18.012-2.289-.012-3.4a2.251,2.251,0,0,0-.2-.792,1.055,1.055,0,0,0-1.115-.628.893.893,0,0,0-.939.7,14.763,14.763,0,0,0-.241,4.133c.9-.012,1.714-.012,2.507-.012Z" transform="translate(-674.1 -14.7)" fill="#fff"/>
    <path id="Caminho_52" data-name="Caminho 52" d="M1208.593,30.829H1205.1V28h10.426v2.812h-3.469V49.485H1208.6Z" transform="translate(-1173.929 -27.219)" fill="#fff"/>
  </g>
</svg>
